<?xml version="1.0" encoding="UTF-8"?>
<svg class="icon" width="45" height="45" version="1.1" viewBox="0 0 45 45" xml:space="preserve" xmlns="http://www.w3.org/2000/svg">



<path id="Discord" d="m22.5 0a22.5 22.5 0 0 0-22.5 22.5 22.5 22.5 0 0 0 22.5 22.5 22.5 22.5 0 0 0 22.5-22.5 22.5 22.5 0 0 0-22.5-22.5zm-5.5078 5.957c0.0026-0.00151-0.0014 0.00488-2e-3 0.00781-0.18089 0.9306-0.06258 1.5706 0.22656 2.0176 0.87437 0.023213 1.7751 0.15649 2.5957 0.44727 0.22578 0.080002 0.44014 0.18849 0.66016 0.2832 0.22002 0.1317 0.34446 0.20462 0.48052 0.28711 0.48895 0.014902 0.75063 0.083567 0.53711 0.38672 0.07089 0.06109 0.13897 0.11879 0.22852 0.20312 0.01011 0.00952 0.01928 0.019695 0.0293 0.029297 0.58432-1.1625 2.4196-1.8606 5.0117-1.0781 0.7391 0.22311 1.5006 0.36783 2.2578 0.51758 0.66265 0.11242 1.3155 0.28024 1.9453 0.51562 0.50457 0.18862 0.98446 0.42859 1.4629 0.67383 0.9035 0.47463 1.6486 1.1782 2.3672 1.8906 0.68295 0.68734 1.2571 1.4693 1.8184 2.2559 0.79262 1.1453 1.2386 2.4744 1.7012 3.7754 0.2835 0.81568 0.54192 1.6391 0.73828 2.4805 0.11973 0.51298 0.13787 0.64678 0.23047 1.1543 0.11787 0.74499 0.1742 1.5039 0.0625 2.2539-0.07626 0.51206-0.1443 0.66966-0.29492 1.1484-0.18702 0.48892-0.42944 0.92543-0.71289 1.332 0.11392 1.0694 0.18164 2.176 0.18164 3.3125 0.0013 0-2.3282 3.9795-8.3906 4.1719 0 0-0.49763-0.61575-0.76172-0.93555-1.2209 0.31207-2.4938 0.30478-3.748 0.27734-1.6309-0.04651-3.2515-0.25103-4.873-0.41602-1.4891-0.14816-2.9811-0.2566-4.4746-0.34961-0.08719-0.0046-0.1745-0.0086-0.26172-0.01367-0.50544 0.62543-1.1602 1.4375-1.1602 1.4375-6.063-0.19288-8.3691-4.1719-8.3691-4.1719 0-4.6711 1.0942-8.824 2.1309-11.73 0.027867-0.22623 0.052713-0.45303 0.091797-0.67774 0.18577-0.8442 0.20825-1.0532 0.48242-1.877 0.026828-0.08061 0.061553-0.15822 0.089844-0.23828-0.31599-0.95134-0.17102-2.2482 0.76367-3.7031 0.30762-0.47885 0.63255-0.9461 1.0332-1.3535 0.25736-0.26354 0.41732-0.44071 0.70508-0.67383 0.15606-0.12643 0.31453-0.25108 0.48242-0.36133 0.32615-0.21416 0.67993-0.37127 1.0371-0.52344 0.20896-0.085621 0.34673-0.14308 0.49023-0.19727 0.32527-0.32978 0.6577-0.65261 1.0039-0.96094 0.20105-0.16802 0.39819-0.34114 0.60352-0.50391 0.50574-0.40092 1.0422-0.76775 1.5996-1.0938zm9.8789 18.609c0.01484 0.0041 0.03015 0.0069 0.04492 0.01172 0.0031-4e-3 0.0067-0.0077 0.0098-0.01172-0.01834 4.68e-4 -0.0366 1.12e-4 -0.05469 0z" fill="#333"/><path d="m22.5 1.5a21 21 0 0 0-21 21 21 21 0 0 0 21 21 21 21 0 0 0 21-21 21 21 0 0 0-21-21zm-4.0721 10.245v0.0029l0.25781 0.30469c-4.6091 1.3314-6.7353 3.3544-6.7353 3.3544s0.56429-0.30638 1.5117-0.7412c2.7399-1.2034 4.9163-1.537 5.8125-1.6143 0.15374-0.02572 0.27989-0.0498 0.43359-0.0498 1.5616-0.20456 3.3303-0.25729 5.1737-0.05273 2.4326 0.2817 5.0422 0.99807 7.7051 2.458 0 0-2.0224-1.9204-6.3749-3.252l0.35742-0.41016s3.5085-0.07555 7.1954 2.6895c0 0 3.6855 6.6824 3.6855 14.927 0.0012 0-2.1729 3.714-7.8311 3.8936 0 0-0.92247-1.1017-1.6905-2.0741 3.3541-0.94742 4.6347-3.0469 4.6347-3.0469-1.0497 0.69142-2.0484 1.1786-2.9444 1.5117-1.28 0.5377-2.5086 0.89643-3.7118 1.1015-2.4584 0.46116-4.7129 0.33249-6.6328-0.02636-1.4594-0.28172-2.7151-0.69186-3.7647-1.1015-0.58914-0.23028-1.2291-0.51186-1.8692-0.87009-0.07656-0.05143-0.15196-0.07746-0.22851-0.12891-0.05142-0.02572-0.07681-0.05105-0.10254-0.07617-0.46114-0.256-0.71778-0.43653-0.71778-0.43653s1.2283 2.0511 4.4794 3.0233c-0.76798 0.97316-1.7139 2.124-1.7139 2.124-5.6588-0.18006-7.8105-3.8936-7.8105-3.8936 0-8.2442 3.6886-14.927 3.6886-14.927 3.6868-2.7651 7.1924-2.6895 7.1924-2.6895zm-0.71484 9.5512c-1.4594 0-2.6134 1.2796-2.6134 2.8417 0 1.5616 1.1796 2.8417 2.6134 2.8417 1.4594 0 2.6103-1.2795 2.6103-2.8417 0.02572-1.5616-1.151-2.8417-2.6103-2.8417zm9.3455 0c-1.4594 0-2.6134 1.2796-2.6134 2.8417 0 1.5616 1.1796 2.8417 2.6134 2.8417 1.4594 0 2.6103-1.2795 2.6103-2.8417 0-1.5616-1.151-2.8417-2.6103-2.8417z" fill="#d1cecc" stroke-width="0"/></svg>
