<?xml version="1.0" encoding="UTF-8"?>
<svg class="icon" width="55" height="55" version="1.1" viewBox="0 0 55 55" xml:space="preserve" xmlns="http://www.w3.org/2000/svg">


<path id="Twitch" d="m27.5 0c-15.188 0-27.5 12.312-27.5 27.5 0 15.188 12.312 27.5 27.5 27.5 15.188 0 27.5-12.312 27.5-27.5 0-15.188-12.312-27.5-27.5-27.5zm-12.541 12.222h27.135v18.698l-7.9813 7.9813h-5.9288l-3.8763 3.8763h-4.1044v-3.8763h-7.2965v-21.434zm2.5082 2.7362v19.154h6.1569v3.8763l3.8763-3.8763h7.2965l4.5607-4.5607v-14.593zm7.2965 5.2444h2.7366v7.9726h-2.7366zm7.2973 0h2.7362v7.9726h-2.7362z" fill="#d1cecc" stroke-width="1.9643"/>
</svg>
