<?xml version="1.0" encoding="UTF-8"?>
<svg class="icon" width="55" height="55" version="1.1" viewBox="0 0 55 55" xml:space="preserve" xmlns="http://www.w3.org/2000/svg">


<path id="Youtube" d="m27.5 0a27.5 27.5 0 0 0-27.5 27.5 27.5 27.5 0 0 0 27.5 27.5 27.5 27.5 0 0 0 27.5-27.5 27.5 27.5 0 0 0-27.5-27.5zm0 14.648s11.48-1.31e-4 14.345 0.76729c1.5797 0.42228 2.8272 1.6653 3.2495 3.2456 0.7667 2.8633 0.76729 8.8393 0.76729 8.8393s-0.0037 5.9754-0.77114 8.8393c-0.42228 1.5797-1.6653 2.8235-3.2456 3.2456-2.8633 0.76743-14.345 0.76729-14.345 0.76729s-11.48 1.3e-4 -14.345-0.76729c-1.5797-0.42228-2.8272-1.666-3.2495-3.2456-0.7667-2.8639-0.76346-8.8393-0.76346-8.8393s-0.00397-5.9754 0.76346-8.8393c0.42228-1.5797 1.6691-2.8235 3.2495-3.2456 2.8633-0.7667 14.345-0.76729 14.345-0.76729zm-3.6714 7.3431v11.018l9.5376-5.5092z" fill="#d1cecc" stroke-width="0"/>
</svg>
