<?xml version="1.0" encoding="UTF-8"?>
<svg class="icon" width="28" height="28" version="1.1" viewBox="0 0 28 28" xml:space="preserve" xmlns="http://www.w3.org/2000/svg">


<path id="Instagram" d="m14 0c-7.732 0-14 6.268-14 14s6.268 14 14 14 14-6.268 14-14-6.268-14-14-14zm-3.5254 5.5996h7.0527c2.688 0 4.873 2.1854 4.873 4.873v7.0527c0 2.6877-2.1851 4.875-4.873 4.875h-7.0527c-2.6877 0-4.875-2.1873-4.875-4.875v-7.0527c0-2.6877 2.1873-4.873 4.875-4.873zm0 1.2441c-2.0017 0-3.6309 1.6275-3.6309 3.6289v7.0527c-3.111e-4 2.002 1.6292 3.6309 3.6309 3.6309h7.0527c2.0017 0 3.6289-1.6292 3.6289-3.6309v-7.0527c0-2.0017-1.6272-3.6289-3.6289-3.6289zm7.9883 1.4492c0.5152 0 0.93359 0.41644 0.93359 0.93164s-0.41808 0.93359-0.93359 0.93359c-0.5152 0-0.93359-0.4184-0.93359-0.93359 0-0.5152 0.4184-0.93164 0.93359-0.93164zm-4.4629 1.0898c2.5455 0 4.6152 2.0717 4.6152 4.6172s-2.0697 4.6172-4.6152 4.6172c-2.5458 0-4.6172-2.0717-4.6172-4.6172 0-2.5458 2.0717-4.6172 4.6172-4.6172zm0 1.2441a3.3721 3.3721 0 0 0-3.373 3.373 3.3721 3.3721 0 0 0 3.373 3.3711 3.3721 3.3721 0 0 0 3.3711-3.3711 3.3721 3.3721 0 0 0-3.3711-3.373z" fill="#f42c5c" stroke-width=".31111"/>
</svg>
