<?xml version="1.0" encoding="UTF-8"?>
<svg class="icon" width="28" height="28" version="1.1" viewBox="0 0 28 28" xml:space="preserve" xmlns="http://www.w3.org/2000/svg">



<path id="Rumble" d="m14 0a14 14 0 0 0-14 14 14 14 0 0 0 14 14 14 14 0 0 0 14-14 14 14 0 0 0-14-14zm-3.0497 4.3918c0.26143 0.0065 0.52646 0.0406 0.79254 0.10402 3.9415 0.94065 7.6421 3.3599 10.47 6.4167 1.63 1.7839 1.6353 4.5147 0.01238 6.305-2.797 3.0867-6.4508 5.2693-10.495 6.2685-2.1499 0.53812-4.3378-0.73141-4.9379-2.8649-1.2189-4.1645-1.0393-8.8732 0.13622-13.056 0.54148-1.9221 2.1915-3.219 4.0215-3.1732zm1.6145 6.1536c-0.63462 0.03335-1.1962 0.53563-1.2984 1.2643-0.21034 1.485-0.24748 2.9824-0.11145 4.4057 0.09289 0.98378 1.0333 1.5717 1.8996 1.1944 1.2941-0.55691 2.5074-1.2851 3.6076-2.1655v-0.0065c0.74248-0.58788 0.74248-1.7327 0-2.3389-1.0568-0.87744-2.2161-1.6234-3.4525-2.2216-0.21349-0.10207-0.43332-0.143-0.64486-0.13188z" fill="#d1cecc" stroke-width="0"/></svg>
