<?xml version="1.0" encoding="UTF-8"?>
<svg class="icon" width="28" height="28" version="1.1" viewBox="0 0 149.33 149.33" xmlns="http://www.w3.org/2000/svg">
 <path id="Pinterest" d="m74.664 0c41.235 0 74.666 33.429 74.666 74.666 0 41.235-33.429 74.666-74.666 74.666-8.0028 0-15.697-1.2897-22.923-3.6212 2.3452-3.7027 9.0311-15.493 10.742-21.888 0.8858-3.3124 4.4188-16.858 4.4188-16.858 2.3113 4.4086 9.065 8.142 16.254 8.142 21.385 0 36.793-19.668 36.793-44.103 0-23.425-19.115-40.954-43.713-40.954-30.599 0-46.852 20.544-46.852 42.909 0 10.399 5.5354 23.347 14.394 27.47 1.344 0.62448 2.0635 0.34957 2.3724-0.9469 0.23418-0.98761 1.4322-5.8035 1.9685-8.04 0.17309-0.71611 0.08824-1.3304-0.49211-2.033-2.9289-3.5534-5.2775-10.087-5.2775-16.182 0-15.639 11.841-30.772 32.017-30.772 17.421 0 29.618 11.872 29.618 28.847 0 19.183-9.6861 32.469-22.291 32.469-6.9609 0-12.171-5.756-10.501-12.812 1.999-8.4304 5.8714-17.526 5.8714-23.608 0-5.4472-2.9221-9.9882-8.97-9.9882-7.117 0-12.829 7.3614-12.829 17.221 0 6.2787 2.1212 10.528 2.1212 10.528s-7.0254 29.71-8.315 35.245c-1.2184 5.2401-0.49551 19.922-0.12218 24.335-28.545-10.494-48.95-37.841-48.95-70.026 0-41.235 33.429-74.666 74.666-74.666z" fill="#d1cecc" stroke-width="3.3938" style="mix-blend-mode:normal"/>
</svg>
