<?xml version="1.0" encoding="UTF-8"?>
<svg class="icon" width="45" height="45" version="1.1" viewBox="0 0 45 45" xml:space="preserve" xmlns="http://www.w3.org/2000/svg">


<path id="Twitch" d="m22.5 0c-12.427 0-22.5 10.073-22.5 22.5s10.073 22.5 22.5 22.5c2.0546 0 4.0426-0.28107 5.9336-0.79688-0.51836-0.14052-1.0185-0.34165-1.4219-0.70898-0.14304-0.13025-0.24194-0.30246-0.36328-0.45312-0.07722-0.18449-0.17309-0.36174-0.23242-0.55274-0.09348-0.30093-0.06416-0.62062-0.06836-0.92969 0.0014-0.26927 0.0032-0.53939 0.0098-0.80859 0.01103-0.40721 0.02561-0.81446 0.05664-1.2207 0.0504-0.56732 0.12593-1.1322 0.28906-1.6797 0.10799-0.33812 0.21583-0.69928 0.42188-0.99414 0.27526-0.39392 0.52219-0.64488 0.98633-0.83398 0.20927-0.08526 0.44282-0.09074 0.66406-0.13672 0.28646 8.1e-4 0.57234 0.01588 0.85742 0.04492 0.21022 0.02005 0.41958 0.03682 0.63086 0.04102 0.26001-0.0046 0.52132-0.01173 0.78125-0.01953 0.43996-0.01028 0.87934-0.01016 1.3184 0.02539 0.59209 0.04421 1.1817 0.10983 1.7695 0.19336 0.85391 0.11896 1.7064 0.24274 2.5625 0.3457 0.05232 0.0066 0.5509 0.07 0.68164 0.08789 0.34588-0.17514 0.78952-0.27696 1.3281-0.26562 0.18742 0.0039 0.38595 0.01977 0.5957 0.05273 0.07981 0.01255 0.16042 0.02652 0.24024 0.03906 0.17953 0.03167 0.35891 0.06611 0.53711 0.10352 3.0761-3.8479 4.9218-8.7235 4.9218-14.033 0-12.427-10.073-22.5-22.5-22.5zm-10.262 10h22.201v15.297l-6.5293 6.5312h-4.8516l-3.1719 3.1719h-3.3574v-3.1719h-5.9707v-17.537zm2.0527 2.2383v15.672h5.0371v3.1699l3.1719-3.1699h5.9707l3.7305-3.7324v-11.939zm5.9707 4.291h2.2383v6.5234h-2.2383zm5.9707 0h2.2383v6.5234h-2.2383zm2.6055 22.781c-0.0091-0.0015-0.01023-7.22e-4 -0.0293 0.0059 0.0155-0.0023 0.02251-0.0038 0.03711-0.0059-0.0011-1.92e-4 -0.0069 1.49e-4 -0.0078 0zm1.043 0.07617c-0.01962 0.14572-0.03477 0.29295-0.04687 0.43945-0.02435 0.33878-0.03582 0.6781-0.04492 1.0176-0.0012 0.05084-0.0011 0.1015-2e-3 0.15234 0.03122 0.0057 0.04679 0.0092 0.0918 0.01758 0.23796 0.03979 0.48028 0.04169 0.7207 0.0293-0.14024-0.357-0.25716-0.72254-0.35352-1.0938-0.03145-0.12757-0.08723-0.33427-0.13281-0.55469-0.07747-0.0022-0.15505-0.0036-0.23242-0.0078zm3.9688 0.24023c0.0025 0.0061 0.0054 0.01395 0.0078 0.01953 0.0043 0.0099 0.02023 0.03714 0.01563 0.02734-0.0091-0.01948-0.01551-0.03008-0.02344-0.04687z" fill="#d1cecc"/>
<path d="m25.985 35.821c-0.93115 0-1.6858 0.75464-1.6858 1.6858v5.8078c0 0.93114 0.75466 1.6858 1.6858 1.6858h17.329c0.93113 0 1.6861-0.75465 1.6861-1.6858v-5.8078c0-0.93115-0.75486-1.6858-1.6861-1.6858zm5.8384 1.5595c0.27606 0 0.50007 0.2237 0.50007 0.50007v5.0602c0 0.27606-0.22369 0.50008-0.50007 0.50008-0.27605 0-0.50007-0.22402-0.50007-0.50008v-5.0602c0-0.27637 0.22402-0.50007 0.50007-0.50007zm7.5972 0h2.1801c0.27605 0 0.50007 0.2237 0.50007 0.50007 0 0.27638-0.22402 0.50008-0.50007 0.50008h-1.6798v1.5299h1.6798c0.27605 0 0.50007 0.22392 0.50007 0.5003s-0.22402 0.50006-0.50007 0.50006h-1.6798v1.5299h1.6798c0.27605 0 0.50007 0.22402 0.50007 0.50007 0 0.27604-0.22402 0.50006-0.50007 0.50006h-2.1801c-0.27605 0-0.50008-0.22402-0.50008-0.50006v-5.0602c0-0.27637 0.22402-0.50006 0.50008-0.50006zm-5.5515 2.32e-4c0.21285-0.0091 0.41621 0.12051 0.4915 0.33208l1.3301 3.7368 1.3304-3.7368c0.09264-0.26039 0.37926-0.39602 0.63863-0.30334 0.26004 0.09264 0.396 0.37883 0.30332 0.63888l-1.8012 5.0602c-0.07097 0.19905-0.2594 0.3323-0.47112 0.3323s-0.40009-0.13292-0.4711-0.3323l-1.8012-5.0602c-0.09264-0.26005 0.04335-0.54619 0.30332-0.63888 0.04879-0.01734 0.09829-0.02671 0.14739-0.02873zm-6.1711 0.12515c0.27638 0 0.50007 0.22368 0.50007 0.50006v4.3097h1.6323c0.27638 0 0.50007 0.22425 0.50007 0.50029 0 0.27605-0.22369 0.50008-0.50007 0.50008h-2.1323c-0.27638 0-0.50007-0.22403-0.50007-0.50008v-4.81c0-0.27638 0.22369-0.50007 0.50007-0.50007z" fill="#f03" stroke-width=".8997"/></svg>
