<?xml version="1.0" encoding="UTF-8"?>
<svg width="45" height="45" version="1.1" viewBox="0 0 45 45" xmlns="http://www.w3.org/2000/svg">
 <path d="m22.5 0a22.5 22.5 0 0 0-22.5 22.5 22.5 22.5 0 0 0 22.5 22.5 22.5 22.5 0 0 0 4.2559-0.45898c-0.03506-0.05164-0.07042-0.10321-0.10547-0.1543-0.17868-0.28682-0.34668-0.57969-0.5-0.88086-0.84643-1.6626-0.68568-3.0105-0.05273-3.7402 0.03422-0.61091 0.2474-1.1979 0.66016-1.6602 0.11472-0.12848 0.25672-0.2305 0.38477-0.3457 0.42659-0.2976 0.84984-0.4292 1.2891-0.46875-0.02994-0.03814-0.05583-0.07572-0.07617-0.11328h-2.5938v-3.2617h-3.2617v-3.2617h-3.2617v6.5234h-9.7852v-29.355h9.7852v6.5234h3.2617v-3.2617h3.2617v-3.2617h9.7852v9.7852h-3.2617v3.2617h-3.2617v3.2617h3.2617v3.2617h3.2617v9.1152c0.34545 0.13486 0.6432 0.29689 0.89258 0.47852 0.54419 0.06437 1.0877 0.13259 1.6309 0.20703 0.38341 0.05264 0.76795 0.08841 1.1523 0.13281 0.02021 0.0023 0.03859 0.0053 0.05859 0.0078a22.5 22.5 0 0 0 5.7188-14.834 22.5 22.5 0 0 0-22.5-22.5z" fill="#d1cecc" fill-rule="evenodd" stroke-width="0"/>
 <path d="m25.985 35.821c-0.93115 0-1.6858 0.75464-1.6858 1.6858v5.8078c0 0.93114 0.75466 1.6858 1.6858 1.6858h17.329c0.93113 0 1.6861-0.75465 1.6861-1.6858v-5.8078c0-0.93115-0.75486-1.6858-1.6861-1.6858zm5.8384 1.5595c0.27606 0 0.50007 0.2237 0.50007 0.50007v5.0602c0 0.27606-0.22369 0.50008-0.50007 0.50008-0.27605 0-0.50007-0.22402-0.50007-0.50008v-5.0602c0-0.27637 0.22402-0.50007 0.50007-0.50007zm7.5972 0h2.1801c0.27605 0 0.50007 0.2237 0.50007 0.50007 0 0.27638-0.22402 0.50008-0.50007 0.50008h-1.6798v1.5299h1.6798c0.27605 0 0.50007 0.22392 0.50007 0.5003s-0.22402 0.50006-0.50007 0.50006h-1.6798v1.5299h1.6798c0.27605 0 0.50007 0.22402 0.50007 0.50007 0 0.27604-0.22402 0.50006-0.50007 0.50006h-2.1801c-0.27605 0-0.50008-0.22402-0.50008-0.50006v-5.0602c0-0.27637 0.22402-0.50006 0.50008-0.50006zm-5.5515 2.3e-4c0.21285-9e-3 0.41621 0.12051 0.4915 0.33208l1.3301 3.7368 1.3304-3.7368c0.0926-0.26039 0.37926-0.39602 0.63863-0.30334 0.26004 0.0926 0.396 0.37883 0.30332 0.63888l-1.8012 5.0602c-0.071 0.19905-0.2594 0.3323-0.47112 0.3323s-0.40009-0.13292-0.4711-0.3323l-1.8012-5.0602c-0.0926-0.26005 0.0433-0.54619 0.30332-0.63888 0.0488-0.0173 0.0983-0.0267 0.14739-0.0287zm-6.1711 0.12515c0.27638 0 0.50007 0.22368 0.50007 0.50006v4.3097h1.6323c0.27638 0 0.50007 0.22425 0.50007 0.50029 0 0.27605-0.22369 0.50008-0.50007 0.50008h-2.1323c-0.27638 0-0.50007-0.22403-0.50007-0.50008v-4.81c0-0.27638 0.22369-0.50007 0.50007-0.50007z" fill="#f03" stroke-width=".8997"/>
</svg>
