<?xml version="1.0" encoding="UTF-8"?>
<svg class="icon" width="45" height="45" version="1.1" viewBox="0 0 45 45" xml:space="preserve" xmlns="http://www.w3.org/2000/svg">


<path id="Twitch" d="m22.5 0c-12.427 0-22.5 10.073-22.5 22.5s10.073 22.5 22.5 22.5 22.5-10.073 22.5-22.5-10.073-22.5-22.5-22.5zm-4.9648 8.1172c0.8231 0.00599 1.4831 0.2786 1.9102 0.72461 0.97595 0.017427 1.951 0.041451 2.9258 0.09375 1.4249 0.072889 2.8503 0.15057 4.2773 0.16602 1.0778 0.028988 2.155 0.063869 3.2324 0.10352 0.33299 0.0122 0.66675 0.030073 1 0.033203 0.12851 0.00121 0.7438-0.00427 0.83984-0.00195 0.20823 0.00503 0.41495 0.018214 0.62305 0.027344 0.84709 0.18432 1.2709 0.18814 1.9082 0.73632h0.1875v0.17383c0.02921 0.02809 0.05568 0.04968 0.08594 0.08008 0.66449 0.6674 0.78913 1.2453 0.92383 2.0879 0.02115 0.13239 0.01889 0.6431 0.01953 0.78516-0.0094 0.86067-0.02276 1.7218-0.05469 2.582-0.04743 1.2181-0.10668 2.4356-0.21094 3.6504-0.09904 1.1327-0.17 2.268-0.29297 3.3984-0.07002 0.47741-0.09169 0.70051-0.20508 1.1738-0.07022 0.29314-0.16111 0.5796-0.26562 0.86133v0.50391l-0.41016 0.41016c-0.03363 0.06365-0.06419 0.12865-0.09961 0.19141-0.28566 0.46298-0.3239 0.55689-0.67774 0.98437-0.39212 0.47374-0.86465 0.87013-1.3418 1.2539-0.42636 0.33344-0.86053 0.65684-1.293 0.98242l-2.707 2.709h-1.3164c-0.16917 0.07924-0.35544 0.15741-0.57812 0.23633-0.85328 0.30239-1.6448 0.435-2.5547 0.31445-0.32099-0.04253-0.56729-0.09981-0.7832-0.16992l-2.791 2.791h-3.3574v-2.6934c-0.25215-0.13346-0.49251-0.29033-0.75391-0.40625-0.06139-0.02774-0.12459-0.04979-0.1875-0.07227h-5.0293v-17.537l1.6797-4.291h0.93164c0.0594-0.045871 0.11751-0.094166 0.17773-0.13867 0.34931-0.24822 0.70251-0.49878 1.0645-0.72461 1.1622-0.72511 2.2359-1.026 3.123-1.0195zm-0.8418 6.1738c0.05686 0.35067 0.11153 0.70144 0.16406 1.0527 0.09713 0.68787 0.20222 1.3735 0.30469 2.0605 0.10756 0.64857 0.1491 1.3044 0.1543 1.9609 0.0049 0.66101-0.06153 1.3198-0.14453 1.9746-0.09156 0.62077-0.15866 1.2435-0.20508 1.8691-0.05882 0.63457-0.03578 1.2547 0.0332 1.8867 0.08073 0.48482 0.16076 0.97455 0.3125 1.4434 0.12071 0.2188-0.07372-0.19468-0.02539-0.16602 0.03333 0.01977 0.05241 0.05691 0.07813 0.08594 0.04416 0.04993 0.08608 0.10102 0.13086 0.15039 0.02162 0.02384 0.02391 0.02247 0.03906 0.03906 0.12762 0.04814 0.25984 0.09823 0.37305 0.14453 0.13382 0.05728 0.26229 0.12622 0.39258 0.19141-0.07089-0.23292-0.14391-0.4649-0.20312-0.70117-0.04474-0.17848-0.06952-0.36145-0.09961-0.54297-0.14996-0.90466-0.24115-1.818-0.27539-2.7344-0.02286-0.652-0.04557-1.1161-0.04297-1.7773 0.0041-1.0592 0.06644-2.1182 0.18945-3.1699-0.01008-0.13548-0.02349-0.27077-0.0332-0.40625-0.081481-1.1042-0.15342-2.2117-0.33594-3.3047-0.28406-0.0043-0.55242-0.02451-0.80664-0.05664zm-0.30859 0.22266c-0.01758 0.01538-0.03749 0.02989-0.05273 0.04492-0.0086 0.0085-0.01263 0.0194-0.01953 0.0293-0.0079 0.01147-0.03905 0.036-0.02539 0.0332 0.01915-0.0039 0.07771-0.08154 0.09766-0.10742zm6.7305 0c0.03358 0.27477 0.05566 0.55045 0.08203 0.82617 0.07586-0.01907 0.15465-0.06027 0.23438-0.11328-0.0058-0.23315-0.01423-0.46597-0.01563-0.69922-0.10021-0.0048-0.20053-0.0091-0.30078-0.01367zm5.8359 0.20117c0.0085 0.65233 0.03748 1.3039 0.07422 1.9551 0.01318 0.15618 0.02425 0.31254 0.03711 0.46875 0.23377-0.262 0.49438-0.4673 0.77148-0.60742 0.01642-0.34552 0.03544-0.69137 0.04883-1.0371 0.0092-0.24939 0.01333-0.49858 0.01953-0.74805-0.07422-0.0029-0.14853-0.0051-0.22266-0.0078-0.24273-0.0089-0.4857-0.0147-0.72852-0.02344zm-5.4102 2.7832c-0.01273 0.07194-0.0185 0.10118-0.0332 0.18359-0.02887 0.16747-0.04991 0.3358-0.07422 0.50391 0.07032 0.90519 0.14183 1.8102 0.2207 2.7148 0.09562 1.0968-0.05289 1.9886-0.35156 2.6758 0.02593 0.29692 0.05809 0.59327 0.09961 0.88867 0.01584 0.11268 0.09982 0.67818 0.13672 0.8125 0.01684 0.0613 0.05354 0.11607 0.08008 0.17383 0.04712 0.10605 0.09804 0.21079 0.15039 0.31445 0.03321-9.17e-4 0.0664-3e-3 0.09961-0.0039 0.10421-0.0023 0.20834-0.0039 0.3125-0.0059-0.11644-0.43438-0.19194-0.92285-0.21289-1.4707-0.02868-0.74988-0.06026-1.5008-0.10352-2.25-0.09001-1.5136-0.20214-3.0258-0.32422-4.5371z" fill="#333"/><path d="m22.5 1c-11.875 0-21.5 9.6254-21.5 21.5s9.6254 21.5 21.5 21.5 21.5-9.6254 21.5-21.5-9.6254-21.5-21.5-21.5zm-9.805 9.5554h21.215v14.618l-6.24 6.24h-4.6352l-3.0305 3.0305h-3.2089v-3.0305h-5.7045v-16.757zm1.961 2.1392v14.975h4.8137v3.0305l3.0305-3.0305h5.7045l3.5657-3.5657v-11.41zm5.7045 4.1001h2.1394v6.233h-2.1394zm5.7051 0h2.1392v6.233h-2.1392z" fill="#d1cecc" stroke-width="1.5358"/>
</svg>
