<?xml version="1.0" encoding="UTF-8"?>
<svg class="icon" width="28" height="28" version="1.1" viewBox="0 0 28 28" xml:space="preserve" xmlns="http://www.w3.org/2000/svg">


<path id="Tiktok" d="m14 0c-7.732 0-14 6.268-14 14 0 7.732 6.268 14 14 14 7.732 0 14-6.268 14-14 0-7.732-6.268-14-14-14zm8.4121 10.353v2.1025c-0.99151 3.11e-4 -1.9547-0.19382-2.8632-0.57711-0.58427-0.24671-1.1284-0.56436-1.6262-0.94827l0.01493 6.4714c-0.0062 1.4572-0.58271 2.8264-1.6262 3.8578-0.84933 0.83938-1.9252 1.3732-3.0915 1.5462-0.27409 0.04045-0.55284 0.06129-0.83502 0.06129-1.2485 0-2.4338-0.40444-3.4032-1.1505-0.18231-0.14062-0.35684-0.29276-0.52297-0.45671-1.1309-1.1178-1.7139-2.6326-1.6159-4.2261 0.074978-1.213 0.56062-2.37 1.3701-3.2766 1.0712-1.2 2.5698-1.866 4.172-1.866 0.28187 0 0.56093 0.02116 0.83502 0.0616v2.94c-0.25978-0.08556-0.53729-0.13284-0.82631-0.13284-1.4638 0-2.6482 1.1944-2.6264 2.6594 0.014 0.93738 0.52578 1.7565 1.2812 2.2083 0.35498 0.21218 0.76316 0.34378 1.1987 0.36773 0.34129 0.01867 0.6692-0.02893 0.97253-0.12911 1.046-0.34564 1.8004-1.3278 1.8004-2.4864l0.0034-4.3338v-7.9122h2.8955c0.0028 0.28684 0.03205 0.56684 0.08587 0.83813 0.2184 1.0979 0.83751 2.0505 1.6987 2.6998 0.75102 0.56653 1.6862 0.90222 2.6998 0.90222 6.22e-4 0 9e-3 0 0.0084-6.23e-4v0.77996z" fill="#d1cecc" stroke-linecap="round"/>
</svg>
