<?xml version="1.0" encoding="UTF-8"?>
<svg class="icon" width="28" height="28" version="1.1" viewBox="0 0 28 28" xmlns="http://www.w3.org/2000/svg">
 <path id="Artstation" d="m14 0a14 14 0 0 0-14 14 14 14 0 0 0 14 14 14 14 0 0 0 14-14 14 14 0 0 0-14-14zm-2.1826 4.3351h3.6158c0.7506 0 1.4442 0.40506 1.8141 1.0577l6.1738 10.893c0.34238 0.604 0.36055 1.3412 0.0507 1.962l-1.688 3.3746a0.41715 0.41715 0 0 1-0.73439 0.02192l-4.2707-7.4261c-0.0053-0.0097-0.01117-0.01907-0.01644-0.02878-0.0018-0.0032-0.0037-0.0063-0.0055-0.0096l-5.301-9.2196a0.41715 0.41715 0 0 1 0.36172-0.62478zm3.0691 1.5304c-0.0051-0.0081 0.0028 0.01259 0.0082 0.0274-2.11e-4 -0.0013 2.21e-4 -0.0028 0-0.0041-0.0028-0.0079-0.0038-0.01618-0.0082-0.02329zm-4.7393 1.3893a0.41715 0.41715 0 0 1 0.35212 0.19045l4.5872 7.0904a0.41715 0.41715 0 0 1-0.34938 0.64396h-8.7592a0.41715 0.41715 0 0 1-0.35898-0.62889l4.1707-7.0904a0.41715 0.41715 0 0 1 0.3576-0.20552zm-0.99608 5.9244c-0.0035 0.0051-0.0074 0.01004-0.01097 0.01507-4e-3 0.01018-0.01258 0.0192-0.01233 0.03014 1.47e-4 0.0067 0.01009-0.01013 0.01233-0.01644 0.0034-0.0097 0.0074-0.01905 0.01097-0.02878zm-4.4242 4.0857h11.679a0.41715 0.41715 0 0 1 0.36445 0.21374l2.0853 3.7542a0.41715 0.41715 0 0 1-0.36446 0.62067h-11.679a0.41715 0.41715 0 0 1-0.36582-0.21511l-2.0853-3.7528a0.41715 0.41715 0 0 1 0.36582-0.62067z" fill="#d1cecc" stroke-width="0"/>
 <path id="Website" d="m21.135 10.872c0.04258 0.11356 0.04258 0.19873 0 0.26971-0.04258 0.07097-0.11356 0.09936-0.24132 0.09936-0.17034 0-0.36908-0.01419-0.56781-0.05678-0.19873-0.04258-0.2839-0.08517-0.25551-0.14195 0.21293-0.21293 0.22712-0.36908 0.04258-0.46844-0.18454-0.09936-0.38327-0.15615-0.5962-0.15615-0.21293 0-0.35488-0.05678-0.42586-0.12776-0.07097-0.07097-0.04258-0.12776 0.07097-0.12776 0.11356 0 0.31229 0 0.56781 0.01419 0.26971 0.01419 0.44005 0.05678 0.52522 0.11356 0.08517 0.05678 0.24132 0.14195 0.46844 0.26971 0.22712 0.12776 0.36908 0.19873 0.41166 0.31229zm1.5189 8.1623c-0.15615-0.04258-0.2839-0.04258-0.36908 0-0.08517 0.04258-0.18454 0.07097-0.2839 0.07097-0.11356-0.01419-0.35488-0.12776-0.70976-0.34068-0.35488-0.21293-0.70976-0.3123-1.093-0.3123-0.15615 0.01419-0.24132 0.05678-0.26971 0.11356-0.02839 0.05678-0.01419 0.09936 0.01419 0.11356 0.02839 0.01419 0.17034 0.04258 0.41166 0.07097s0.56781 0.15615 0.95108 0.36908c0.39747 0.21293 0.68137 0.2981 0.86591 0.26971 0.18454-0.02839 0.3123-0.08517 0.39747-0.14195 0.09936-0.01419 0.17034-0.04258 0.22712-0.08517 0.05678-0.04258 0.01419-0.08517-0.14195-0.12776zm-3.2365-9.2269c0.24132-0.04258 0.42586-0.18454 0.53942-0.42586 0.04258-0.19873-0.05678-0.2839-0.2981-0.25551-0.24132 0.02839-0.41166 0.09936-0.52522 0.18454-0.01419 0.04258-0.02839 0.08517-0.04258 0.12776-0.01419 0.04258-0.02839 0.08517-0.04258 0.09936l-0.11356 0.14195c-0.04258 0.04258-0.04258 0.07097-0.02839 0.08517 0.08517 0.08517 0.25551 0.09936 0.51103 0.04258zm3.5488 0.32649c-0.02839-0.22712-0.15615-0.42586-0.36908-0.582-0.21293-0.15615-0.45425-0.26971-0.70976-0.3123-0.25551-0.04258-0.53942-0.09936-0.86591-0.17034-0.32649-0.07097-0.56781-0.05678-0.75235 0.05678-0.2981 0.25551-0.35488 0.44005-0.17034 0.55361 0.09936 0.04258 0.2839 0.07097 0.53942 0.08517 0.25551 0.01419 0.62459 0.21293 1.0788 0.582 0.15615 0.11356 0.41166 0.2981 0.78074 0.52522 0.36908 0.22712 0.62459 0.32649 0.78074 0.26971 0.08517-0.08517 0.05678-0.21293-0.07097-0.39747-0.12776-0.18454-0.21293-0.38327-0.24132-0.61039zm16.864 9.8231c0 10.973-8.9004 19.873-19.873 19.873-10.973 0-19.873-8.9004-19.873-19.873 0-10.973 8.9004-19.873 19.873-19.873 10.973 0 19.873 8.9004 19.873 19.873zm-8.5881 0c-0.08517-3.1939-1.1782-5.8484-3.3075-7.9777-2.1293-2.1293-4.7838-3.2223-7.9777-3.3075-3.1939 0.08517-5.8484 1.1782-7.9777 3.3075-2.1293 2.1293-3.2223 4.7838-3.3075 7.9777 0.08517 3.1939 1.1782 5.8484 3.3075 7.9777 2.1293 2.1293 4.7838 3.2223 7.9777 3.3075 0.76654 0 1.5047-0.07097 2.2286-0.19873-0.15615-0.09936-0.24132-0.34068-0.25551-0.72396-0.01419-0.38327 0.05678-0.73815 0.22712-1.0788 0.21293-0.36908 0.42586-0.86591 0.65298-1.4763 0.21293-0.6104 0.11356-1.093-0.32649-1.4195-0.45425-0.25551-0.72396-0.48264-0.80913-0.69557-0.08517-0.21293-0.26971-0.45425-0.52522-0.76654-0.25551-0.31229-0.39747-0.51103-0.39747-0.62459v-0.2981c-0.01419-0.2981 0.07097-0.61039 0.26971-0.93688l0.35488-0.55361c0.01419-0.05678 0.02839-0.14195 0.02839-0.26971v-0.26971c-0.01419-0.05678-0.09936-0.12776-0.24132-0.22712-0.14195-0.09936-0.24132-0.14195-0.31229-0.14195-0.07097 0-0.12776 0.01419-0.15615 0.07097-0.02839 0.05678-0.09936 0.08517-0.18454 0.08517-0.08517 0-0.24132-0.05678-0.46844-0.18454s-0.38327-0.22712-0.45425-0.2981c-0.07097-0.07097-0.14195-0.15615-0.19873-0.26971-0.05678-0.11356-0.12776-0.21293-0.22712-0.31229-0.09936-0.09936-0.15615-0.14195-0.22712-0.12776-0.07097 0.01419-0.17034 0-0.32649-0.04258l-2.0583-0.79493c-0.36908-0.15615-0.6104-0.32649-0.70976-0.52522-0.09936-0.19873-0.14195-0.36908-0.14195-0.52522 0-0.15615-0.08517-0.32649-0.24132-0.52522l-0.41166-0.52522c-0.11356-0.17034-0.19873-0.34068-0.24132-0.48264-0.04258-0.14195-0.07097-0.21293-0.08517-0.18454-0.01419 0.09936 0.02839 0.32649 0.14195 0.68137 0.11356 0.35488 0.17034 0.55361 0.14195 0.61039-0.04258 0.01419-0.09936-0.02839-0.17034-0.15615-0.07097-0.12776-0.17034-0.26971-0.26971-0.42586-0.08517-0.09936-0.09936-0.21293-0.05678-0.35488 0.04258-0.14195-0.09936-0.53942-0.41166-1.2066-0.3123-0.66718-0.36908-1.2066-0.15615-1.6324 0.21293-0.42586 0.34069-0.80913 0.42586-1.164 0.04258-0.2981 0.12776-0.35488 0.26971-0.18454 0.14195 0.17034 0.14195 0.15615 0.02839-0.0142-0.11356-0.25551-0.15615-0.56781-0.11356-0.92269 0.04258-0.36908 0.01419-0.65298-0.08517-0.86591-0.15615-0.14195-0.42586-0.11356-0.82332 0.07097-0.39747 0.18454-0.6104 0.2839-0.63878 0.3123 0.04258-0.17034 0.25551-0.39747 0.65298-0.65298l1.235-0.82332c0.36908-0.24132 0.69557-0.31229 0.97947-0.24132 0.2839 0.07097 0.582 0.17034 0.8801 0.2981 0.2981 0.12776 0.48264 0.17034 0.52522 0.14195 0.04258-0.02839 0.01419-0.08517-0.08517-0.18454-0.09936-0.09936-0.09936-0.18454 0.01419-0.22712 0.11356-0.04258 0.2839-0.01419 0.52522 0.04258 0.24132 0.04258 0.44005 0.15615 0.5962 0.34068 0.15615 0.18454 0.42586 0.25551 0.76654 0.24132 0.34069-0.01419 0.45425 0.01419 0.35488 0.08517-0.09936 0.07097-0.15615 0.17034-0.15615 0.26971 0.05678 0.08517 0.02839 0.14195-0.07097 0.18454-0.09936 0.04258-0.2839 0.14195-0.51103 0.2981-0.22712 0.15615-0.25551 0.26971-0.07097 0.36908 0.18454 0.09936 0.51103 0.2981 0.95108 0.582 0.39746 0.26971 0.582 0.26971 0.582-0.01419 0-0.28391-0.02839-0.56781-0.08517-0.86591-0.01419-0.19873 0.07097-0.26971 0.2839-0.19873 0.21293 0.07097 0.3123 0.09936 0.34068 0.11356 0.24132 0.15615 0.38327 0.21293 0.45425 0.15615 0.07097-0.05678 0.18454-0.05678 0.36908-0.01419 0.24132 0.09936 0.52522 0.26971 0.85171 0.52522l0.582 0.46844c-0.6104 0.35488-0.85171 0.582-0.72396 0.69557 0.12776 0.11356 0.2839 0.19873 0.45425 0.2839 0.08517 0.08517 0.02839 0.17034-0.14195 0.2981-0.17034 0.12776-0.2839 0.17034-0.32649 0.17034-0.11356-0.11356-0.21293-0.14195-0.2839-0.07097-0.07097 0.07097-0.14195 0.12776-0.22712 0.18454-0.08517 0.05678-0.09936 0.12776-0.07097 0.19873 0.02839 0.07097 0.05678 0.12776 0.07097 0.14195-0.42586 0.09936-0.66718 0.3123-0.69557 0.62459-0.02839 0.3123-0.02839 0.55361-0.01419 0.69557 0 0.11356-0.09936 0.25551-0.2981 0.42586-0.19873 0.17034-0.34068 0.32649-0.44005 0.48264-0.04258 0.19873 0 0.41166 0.11356 0.66718 0.11356 0.24132 0.11356 0.38327 0 0.42586-0.11356-0.01419-0.3123-0.17034-0.582-0.45425-0.26971-0.2839-0.78074-0.34069-1.5331-0.18454-0.26971 0.05678-0.55361 0.22712-0.85171 0.51103-0.2981 0.2839-0.32649 0.69556-0.08517 1.2492 0.2981 0.45425 0.6104 0.53942 0.96527 0.26971 0.35488-0.26971 0.6104-0.42586 0.79493-0.44005 0.14195 0.11356 0.17034 0.2839 0.08517 0.49683-0.08517 0.21293-0.11356 0.34069-0.11356 0.38327 0.08517-0.01419 0.24132 0.02839 0.48264 0.12776 0.24132 0.09936 0.39747 0.38327 0.45425 0.82332 0.05678 0.44005 0.26971 0.69556 0.65298 0.78074 0.38327 0.08517 0.63878 0.11356 0.80913 0.09936 0.17034-0.01419 0.39747-0.12776 0.68137-0.34068 0.2839-0.21293 0.45425-0.34069 0.52522-0.38327 0.07097-0.04258 0.24132-0.08517 0.49683-0.14195 0.25551-0.05678 0.66718 0.04258 1.1924 0.32649 0.52522 0.2839 0.95108 0.44005 1.2492 0.49683 0.2981 0.05678 0.53942 0.15615 0.70976 0.2839s0.25551 0.2839 0.25551 0.46844c0 0.18454 0.07097 0.32649 0.19873 0.42586 0.21293 0.05678 0.55361 0.09936 1.0221 0.09936 0.46844 0 0.80913 0.14195 1.0221 0.39747 0.09936 0.39747-0.11356 1.0362-0.65298 1.9589-0.52522 0.90849-0.96528 1.4905-1.3202 1.746-0.25551 0.17034-0.48264 0.41166-0.68137 0.69557-0.19873 0.2839-0.42586 0.53942-0.69557 0.78074-0.26971 0.24132-0.582 0.48264-0.93688 0.73815-0.35488 0.25551-0.72396 0.48264-1.1072 0.70976-0.2981 0.21293-0.51103 0.45425-0.65298 0.72396-0.14195 0.26971-0.26971 0.45425-0.38327 0.56781 2.5693-0.61039 4.656-1.9022 6.2885-3.9037 1.6608-2.0299 2.4984-4.4005 2.5693-7.1402z" display="none" fill="#d1cecc" opacity=".52" stroke-width="1.4195"/>
</svg>
