<?xml version="1.0" encoding="UTF-8"?>
<svg class="icon" width="45" height="45" version="1.1" viewBox="0 0 45 45" xml:space="preserve" xmlns="http://www.w3.org/2000/svg">


<path id="Youtube" d="m22.5 0a22.5 22.5 0 0 0-22.5 22.5 22.5 22.5 0 0 0 22.5 22.5 22.5 22.5 0 0 0 22.5-22.5 22.5 22.5 0 0 0-22.5-22.5zm0 11.985s9.3927-1.07e-4 11.737 0.62778c1.2925 0.3455 2.3132 1.3625 2.6587 2.6555 0.6273 2.3427 0.62778 7.2322 0.62778 7.2322s-3e-3 4.889-0.63093 7.2322c-0.3455 1.2925-1.3625 2.3101-2.6555 2.6555-2.3427 0.6279-11.737 0.62778-11.737 0.62778s-9.3927 1.06e-4 -11.737-0.62778c-1.2925-0.3455-2.3132-1.3631-2.6587-2.6555-0.6273-2.3432-0.62465-7.2322-0.62465-7.2322s-0.00325-4.889 0.62465-7.2322c0.3455-1.2925 1.3656-2.3101 2.6587-2.6555 2.3427-0.6273 11.737-0.62778 11.737-0.62778zm-3.0039 6.008v9.0147l7.8035-4.5075z" fill="#d1cecc" stroke-width="0"/>
</svg>
