<?xml version="1.0" encoding="UTF-8"?>
<svg class="icon" width="28" height="28" version="1.1" viewBox="0 0 28 28" xml:space="preserve" xmlns="http://www.w3.org/2000/svg">



<path id="bitchute" d="m14 0c-7.728 0-14 6.272-14 14s6.272 14 14 14 14-6.272 14-14-6.272-14-14-14m6.496 5.908-0.14 0.14c-0.924 0.84-1.988 1.596-2.968 2.408-0.28 0.224-0.532 0.392-0.56 0.392-0.056 0-0.196-0.056-0.336-0.112-0.252-0.14-0.588-0.252-1.036-0.392-0.42-0.112-2.128-0.14-2.688-0.028-1.12 0.196-1.96 0.672-2.884 1.568-0.896 0.896-1.372 1.764-1.568 2.884-0.112 0.56-0.112 1.988 0 2.52l0.084 0.392-2.94 2.408c-0.392 0.28-0.504 0.448-0.336 0.448l4.116-1.092s0.476 0.504 0.476 0.504c1.288 1.344 2.408 1.82 4.284 1.82 1.848 0 2.884-0.448 4.144-1.708 0.952-0.952 1.428-1.904 1.596-3.192 0.028-0.168 0.056-0.252 0.14-0.252 1.512-0.448 2.996-0.812 4.452-1.176 0.028 0 0.028 0.112 0.056 0.336v0.224c0 5.74-4.648 10.388-10.388 10.388s-10.388-4.648-10.388-10.388c0-3.668 1.904-6.888 4.788-8.736l0.056-0.056c1.596-1.008 3.5-1.596 5.544-1.596 2.464 0 4.732 0.868 6.496 2.296" fill="#d1cecc" stroke-width=".028"/></svg>
