<?xml version="1.0" encoding="UTF-8"?>
<svg class="icon" width="28" height="28" version="1.1" viewBox="0 0 28 28" xml:space="preserve" xmlns="http://www.w3.org/2000/svg">


<path id="Youtube" d="m14 0a14 14 0 0 0-14 14 14 14 0 0 0 14 14 14 14 0 0 0 14-14 14 14 0 0 0-14-14zm0 7.457s5.8446-6.63e-5 7.3027 0.39062c0.80419 0.21498 1.4393 0.84779 1.6543 1.6523 0.39032 1.4577 0.39062 4.5 0.39062 4.5s-0.001882 3.042-0.39258 4.5c-0.21498 0.80419-0.84777 1.4374-1.6523 1.6523-1.4577 0.39069-7.3027 0.39062-7.3027 0.39062s-5.8446 6.6e-5 -7.3027-0.39062c-0.80419-0.21498-1.4393-0.84813-1.6543-1.6523-0.39032-1.458-0.38867-4.5-0.38867-4.5s-0.0020194-3.042 0.38867-4.5c0.21498-0.80419 0.84974-1.4374 1.6543-1.6523 1.4577-0.39032 7.3027-0.39062 7.3027-0.39062zm-1.8691 3.7383v5.6094l4.8555-2.8047-4.8555-2.8047z" fill="#d1cecc" stroke-width="0"/>
</svg>
