<?xml version="1.0" encoding="UTF-8"?>
<svg class="icon" width="45" height="45" version="1.1" viewBox="0 0 45 45" xml:space="preserve" xmlns="http://www.w3.org/2000/svg">



<path id="Discord" d="m22.5 0a22.5 22.5 0 0 0-22.5 22.5 22.5 22.5 0 0 0 22.5 22.5 22.5 22.5 0 0 0 22.5-22.5 22.5 22.5 0 0 0-22.5-22.5zm-5.5078 5.957c0.0026-0.00151-0.0014 0.00488-2e-3 0.00781-0.18089 0.9306-0.06258 1.5706 0.22656 2.0176 0.87437 0.023213 1.7751 0.15649 2.5957 0.44727 0.22578 0.080002 0.44014 0.18849 0.66016 0.2832 0.22002 0.1317 0.34446 0.20462 0.48052 0.28711 0.48895 0.014902 0.75063 0.083567 0.53711 0.38672 0.07089 0.06109 0.13897 0.11879 0.22852 0.20312 0.01011 0.00952 0.01928 0.019695 0.0293 0.029297 0.58432-1.1625 2.4196-1.8606 5.0117-1.0781 0.7391 0.22311 1.5006 0.36783 2.2578 0.51758 0.66265 0.11242 1.3155 0.28024 1.9453 0.51562 0.50457 0.18862 0.98446 0.42859 1.4629 0.67383 0.9035 0.47463 1.6486 1.1782 2.3672 1.8906 0.68295 0.68734 1.2571 1.4693 1.8184 2.2559 0.79262 1.1453 1.2386 2.4744 1.7012 3.7754 0.2835 0.81568 0.54192 1.6391 0.73828 2.4805 0.11973 0.51298 0.13787 0.64678 0.23047 1.1543 0.11787 0.74499 0.1742 1.5039 0.0625 2.2539-0.07626 0.51206-0.1443 0.66966-0.29492 1.1484-0.18702 0.48892-0.42944 0.92543-0.71289 1.332 0.11392 1.0694 0.18164 2.176 0.18164 3.3125 0.0013 0-2.3282 3.9795-8.3906 4.1719 0 0-0.49763-0.61575-0.76172-0.93555-1.2209 0.31207-2.4938 0.30478-3.748 0.27734-1.6309-0.04651-3.2515-0.25103-4.873-0.41602-1.4891-0.14816-2.9811-0.2566-4.4746-0.34961-0.08719-0.0046-0.1745-0.0086-0.26172-0.01367-0.50544 0.62543-1.1602 1.4375-1.1602 1.4375-6.063-0.19288-8.3691-4.1719-8.3691-4.1719 0-4.6711 1.0942-8.824 2.1309-11.73 0.027867-0.22623 0.052713-0.45303 0.091797-0.67774 0.18577-0.8442 0.20825-1.0532 0.48242-1.877 0.026828-0.08061 0.061553-0.15822 0.089844-0.23828-0.31599-0.95134-0.17102-2.2482 0.76367-3.7031 0.30762-0.47885 0.63255-0.9461 1.0332-1.3535 0.25736-0.26354 0.41732-0.44071 0.70508-0.67383 0.15606-0.12643 0.31453-0.25108 0.48242-0.36133 0.32615-0.21416 0.67993-0.37127 1.0371-0.52344 0.20896-0.085621 0.34673-0.14308 0.49023-0.19727 0.32527-0.32978 0.6577-0.65261 1.0039-0.96094 0.20105-0.16802 0.39819-0.34114 0.60352-0.50391 0.50574-0.40092 1.0422-0.76775 1.5996-1.0938zm9.8789 18.609c0.01484 0.0041 0.03015 0.0069 0.04492 0.01172 0.0031-4e-3 0.0067-0.0077 0.0098-0.01172-0.01834 4.68e-4 -0.0366 1.12e-4 -0.05469 0z" fill="#333"/><path d="m22.5 0.5a22 22 0 0 0-22 22 22 22 0 0 0 22 22 22 22 0 0 0 22-22 22 22 0 0 0-22-22zm-4.266 10.733v3e-3l0.27009 0.3192c-4.8286 1.3948-7.056 3.5141-7.056 3.5141s0.59116-0.32097 1.5837-0.7765c2.8704-1.2607 5.1504-1.6102 6.0893-1.6912 0.16106-0.02695 0.29322-0.05217 0.45424-0.05217 1.636-0.2143 3.4889-0.26954 5.4201-0.05524 2.5484 0.29511 5.2823 1.0456 8.072 2.5751 0 0-2.1187-2.0119-6.6785-3.4069l0.37444-0.42969s3.6756-0.07915 7.538 2.8176c0 0 3.861 7.0006 3.861 15.638 0.0013 0-2.2764 3.8909-8.204 4.079 0 0-0.9664-1.1542-1.771-2.1729 3.5138-0.99254 4.8554-3.192 4.8554-3.192-1.0997 0.72434-2.1459 1.2347-3.0846 1.5837-1.3409 0.56331-2.6281 0.93912-3.8886 1.154-2.5755 0.48312-4.9373 0.34832-6.9487-0.02762-1.5289-0.29513-2.8444-0.72481-3.944-1.154-0.61719-0.24125-1.2876-0.53623-1.9582-0.91152-0.08021-0.05388-0.1592-0.08115-0.23939-0.13505-0.05387-0.02694-0.08047-0.05348-0.10742-0.0798-0.4831-0.26819-0.75196-0.45732-0.75196-0.45732s1.2868 2.1488 4.6927 3.1673c-0.80455 1.0195-1.7955 2.2251-1.7955 2.2251-5.9283-0.18859-8.1824-4.079-8.1824-4.079 0-8.6368 3.8642-15.638 3.8642-15.638 3.8624-2.8968 7.5349-2.8176 7.5349-2.8176zm-0.74888 10.006c-1.5289 0-2.7378 1.3405-2.7378 2.977 0 1.636 1.2358 2.977 2.7378 2.977 1.5289 0 2.7346-1.3404 2.7346-2.977 0.02694-1.636-1.2058-2.977-2.7346-2.977zm9.7905 0c-1.5289 0-2.7378 1.3405-2.7378 2.977 0 1.636 1.2358 2.977 2.7378 2.977 1.5289 0 2.7346-1.3404 2.7346-2.977 0-1.636-1.2058-2.977-2.7346-2.977z" fill="#d1cecc" stroke-width="0"/></svg>
